<svg version="1.1" id="Layer_1" xmlns="http://www.w3.org/2000/svg" xmlns:xlink="http://www.w3.org/1999/xlink" x="0px" y="0px"
	 width="315.769px" height="66.176px" viewBox="0 0 315.769 66.176" enable-background="new 0 0 315.769 66.176"
	 xml:space="preserve" style="margin:5px; text-align: left;">
<g>
	<path fill="#002147" d="M125.988,0.018h12.097l25.051,53.911h0.212V0.018h9.342v64.583h-12.842l-24.311-52.283h-0.21v52.283h-9.339
		V0.018z"/>
	<path fill="#002147" d="M186.843,38.417c0,8.24,0,20.7,10.348,20.7c8.038,0,9.145-8.441,9.145-12.46h8.44
		c0,5.728-3.416,19.09-18.086,19.09c-13.163,0-18.688-9.143-18.688-27.632c0-13.463,2.613-29.037,19.189-29.037
		c16.479,0,17.984,14.367,17.984,25.922v3.416H186.843z M206.335,31.785v-2.912c0-6.029-1.909-13.164-9.344-13.164
		c-8.842,0-9.847,10.852-9.847,14.066v2.01H206.335z"/>
	<path fill="#002147" d="M216.375,10.486h8.84l8.642,44.009h0.202l9.143-44.009h9.946l8.942,44.009h0.2l8.341-44.009h8.842
		l-12.761,53.855h-9.243l-9.444-44.009h-0.204l-9.041,44.009h-9.845L216.375,10.486z"/>
	<path fill="#002147" d="M306.022,26.262c0-6.834-1.808-10.553-7.939-10.553c-2.711,0-8.739,0.703-8.739,8.24
		c0,6.332,6.631,7.537,13.262,9.746c6.531,2.21,13.163,4.521,13.163,15.172c0,11.354-7.334,16.88-17.381,16.88
		c-18.287,0-18.489-13.563-18.489-19.09h8.441c0,6.53,1.808,12.46,10.048,12.46c2.711,0,8.94-1.308,8.94-8.943
		c0-7.234-6.633-8.741-13.163-10.952c-6.529-2.21-13.261-4.119-13.261-15.272c0-10.047,7.837-14.871,17.179-14.871
		c15.675,0,16.277,10.851,16.381,17.183H306.022z"/>
	<path fill="#AB0520" d="M60.41,64.605H46.344v-6.48c-4.32,5.695-12.371,8.051-19.244,8.051c-6.48,0-13.354-2.061-17.771-6.873
		C4.125,53.608,4.32,47.029,4.32,39.961V13.746C4.32,9.328,5.006,2.161,0,0.295V0h18.654v0.295
		c-4.908,1.866-4.318,9.033-4.318,13.451v26.215c0,13.06,5.498,19.146,15.609,19.146c5.498,0,11.094-2.259,14.334-6.873
		c2.162-2.946,2.064-5.4,2.064-8.935V13.746c0-4.418,0.588-11.585-4.32-13.451V0h18.654l0.098,0.295
		c-5.01,1.866-4.418,9.033-4.418,13.549v37.016c0,3.314-0.096,8.529,1.85,11.538L60.41,64.605z"/>
	<path fill="#AB0520" d="M57.996,62.379c3.473-3.047,4.895-7.498,6.637-12.01L81.029,9.426c1.373-3.533,3.24-7.658-1.473-9.131V0
		H95.07l20.422,50.369c2.258,5.595,4.025,11.094,9.619,13.941v0.295h-20.127v-0.295c4.812-2.159,4.029-3.239,1.375-10.112
		l-5.301-13.846h-24.74l-5.107,13.846c-2.062,5.498-2.75,8.346,1.963,10.112v0.295H59.984L57.996,62.379z M88.59,8.346
		l-9.721,24.743h19.342L88.59,8.346z"/>
</g>
</svg>